{"title":"Obsessed XXX **[NEW]** 01 September 2014 ","uid":10944859,"size":2071553732,"categoryP":"porn","categoryS":"movies","magnet":"?xt=urn:btih:40ce726d70bedfd387f138819e45a2ca511f921e&amp;dn=Obsessed+XXX+%2A%2A%5BNEW%5D%2A%2A+01+September+2014+&amp;tr=udp%3A%2F%2Ftracker.openbittorrent.com%3A80&amp;tr=udp%3A%2F%2Fopen.demonii.com%3A1337&amp;tr=udp%3A%2F%2Ftracker.coppersurfer.tk%3A6969&amp;tr=udp%3A%2F%2Fexodus.desync.com%3A6969","seeders":0,"leechers":1,"uploader":"iH2OSO4","files":-1,"time":1409591365,"description":"Obsessed XXX **[NEW]** 01 September 2014 \n\nObsessed: when nothing else is important except having her... all of her. Porn Fidelity's Obsessed DVD video Wanting and waiting, your adrenaline pumps as the heart races, your desire becomes too much to handle, you lust for her and you want her now! Filling the mid with overwhelming need is a place of no rest and it's exactly where we like to be especially if it gets the best of us and we become obsessed!\n\nSOURCE :  &lt;a href=&quot; http://nuscotower.com/i/oobs35421.html&quot; rel=&quot;nofollow&quot; target=&quot;_NEW&quot;&gt; http://nuscotower.com/i/oobs35421.html&lt;/a&gt;\n\nGeneral\nObsessed.XXX.2014.DVDRiP-eUDOXiU.mp4\nFormat                           : MPEG-4\nFormat profile                   : Base Media\nCodec ID                         : isom\nFile size                        : 1.93 GiB\nDuration                         : 2h 46mn\nOverall bit rate                 : 1 662 Kbps\nEncoded date                     : UTC 2014-09-01 03:47:26\nTagged date                      : UTC 2014-09-01 03:47:26\n\nVideo\nID                               : 1\nFormat                           : MPEG-4 Visual\nFormat profile                   : Simple@L1\nFormat settings, BVOP            : No\nFormat settings, QPel            : No\nFormat settings, GMC             : No warppoints\nFormat settings, Matrix          : Default (H.263)\nCodec ID                         : 20\nDuration                         : 2h 46mn\nBit rate mode                    : Variable\nBit rate                         : 1 536 Kbps\nMaximum bit rate                 : 4 410 Kbps\nWidth                            : 856 pixels\nHeight                           : 480 pixels\nDisplay aspect ratio             : 16:9\nFrame rate mode                  : Constant\nFrame rate                       : 29.970 fps\nColor space                      : YUV\nChroma subsampling               : 4:2:0\nBit depth                        : 8 bits\nScan type                        : Progressive\nCompression mode                 : Lossy\nBits/(Pixel*Frame)               : 0.125\nStream size                      : 1.78 GiB (92%)\nWriting library                  : Lavc53.8.0\nEncoded date                     : UTC 2014-09-01 03:47:26\nTagged date                      : UTC 2014-09-01 03:49:59\n\nAudio\nID                               : 2\nFormat                           : AAC\nFormat/Info                      : Advanced Audio Codec\nFormat profile                   : LC\nCodec ID                         : 40\nDuration                         : 2h 46mn\nBit rate mode                    : Variable\nBit rate                         : 124 Kbps\nMaximum bit rate                 : 230 Kbps\nChannel(s)                       : 2 channels\nChannel positions                : Front: L R\nSampling rate                    : 44.1 KHz\nCompression mode                 : Lossy\nStream size                      : 147 MiB (7%)\nEncoded date                     : UTC 2014-09-01 03:49:15\nTagged date                      : UTC 2014-09-01 03:49:59\n","torrent":{"xt":"urn:btih:40ce726d70bedfd387f138819e45a2ca511f921e","amp;dn":"Obsessed+XXX+%2A%2A%5BNEW%5D%2A%2A+01+September+2014+","amp;tr":["udp%3A%2F%2Ftracker.openbittorrent.com%3A80","udp%3A%2F%2Fopen.demonii.com%3A1337","udp%3A%2F%2Ftracker.coppersurfer.tk%3A6969","udp%3A%2F%2Fexodus.desync.com%3A6969"],"infoHash":"40ce726d70bedfd387f138819e45a2ca511f921e","infoHashBuffer":{"type":"Buffer","data":[64,206,114,109,112,190,223,211,135,241,56,129,158,69,162,202,81,31,146,30]},"announce":[],"urlList":[]}}